<svg width="700" height="671" viewBox="0 0 700 671" fill="none" xmlns="http://www.w3.org/2000/svg">
<path fill-rule="evenodd" clip-rule="evenodd" d="M290.16 115.5H290.092H290.001C234.001 138.5 228 189.91 237 217.566C237 217.566 237.001 217.774 236.986 218.152C269.405 195.352 310.861 183.065 349.998 183.065C445.063 183.065 522.129 245.947 522.129 323.516C522.129 401.085 445.063 463.967 349.998 463.967C349.264 463.967 348.449 463.936 347.587 463.904C343.069 463.736 337.249 463.52 334.891 467.361C332.082 471.935 338.275 478.969 341.841 483.004C379.004 525.044 432.909 530.327 447.066 531.715C447.976 531.804 448.722 531.877 449.289 531.943C324.411 544.02 177.913 464.242 177.867 325.566C177.856 292.878 189.932 265.096 209.21 242.983C209.164 242.977 209.118 242.97 209.071 242.964C209.039 242.959 209.007 242.955 208.975 242.95C213.218 171.99 185.972 87.1329 135.007 70.4469C131.401 69.2659 127.828 71.978 127.378 75.746C120.676 131.875 106.163 151.33 90.508 172.318C67.02 203.805 49.952 240.197 50.696 280.162C42.172 262.322 35.261 243.697 30.132 224.439C29.437 221.829 25.144 213.814 20.421 216.502C16.648 218.65 13.806 224.522 11.774 230.644C4.008 259.792 0 290.89 0 320.999C0 511.646 159.68 671 350.001 671C543.301 671 700.001 514.299 700.001 321C700.001 247.3 677.222 178.921 638.32 122.519C639.941 122.489 641.566 122.474 643.195 122.474C658.302 122.474 673.037 123.766 687.243 126.221C665.829 102.427 636.94 83.1939 603.314 70.702C625.763 62.561 650.289 57.516 676.069 56.239C634.454 22.252 573.735 0.834961 506.115 0.834961C408.242 0.834961 312.2 38.451 290.16 115.5ZM310.046 382.851C284.695 356.466 208.77 268.824 208.77 268.824L214.647 269.076L333.501 357.851C342.406 364.319 355.098 364.254 363.922 357.695L480.469 269.191L486.657 268.71C486.657 268.71 413.214 354.276 385.085 382.467C356.955 410.658 335.396 409.235 310.046 382.851ZM390.957 88.776C390.957 88.776 392.569 107.012 374.149 112.813C353.093 119.444 343.76 101.732 343.76 101.732C343.76 101.732 346.407 89.5689 363.491 83.9429C381.74 77.9329 390.957 88.776 390.957 88.776Z" fill="white"/>
</svg>
