<svg width="1024" height="1024" viewBox="0 0 1024 1024" fill="none" xmlns="http://www.w3.org/2000/svg">
<g clip-path="url(#clip0_6442_9893)">
<path d="M536.1 303.8C554.5 298 552.9 279.8 552.9 279.8C552.9 279.8 543.7 269 525.4 275C508.3 280.6 505.7 292.8 505.7 292.8C505.7 292.8 515.1 310.4 536.1 303.8Z" fill="white"/>
<path d="M492.5 658.6C495.9 652.2 505.1 651.2 511.4 650.6C529.9 650.7 548.3 648.4 566.2 643.7C627.8 628 684.9 577.6 683.3 510.1C681.2 429.7 598.9 377.1 524.3 375.3C477.6 373.1 430.6 389.4 394.2 418.5C362.4 444 341.2 480.7 343.5 522.3C345.1 605.6 398.3 661.3 472.3 691.7C507.6 706.7 545.3 717.8 583.6 722.7C592.5 723.8 601.4 724.7 610.4 725C580.5 724.1 517.2 703.2 498.4 679.4C493.5 674 489.5 666.4 492.5 658.6ZM503 663.3C501.2 670.4 503.9 675.7 509.5 681.3C527.7 698.9 552.9 709.6 576.6 717.8C587.6 721.3 598.8 724.5 610.4 725C562.6 723 514.2 716.9 469 700.1C382 666.8 325.7 600.2 332.1 503.9C338.3 440.4 394.1 393.4 452.5 376.5C542.2 348.3 666.7 392.3 687.4 491.7C697.5 541.8 673.9 590.6 634.4 621.2C600.6 647.9 557.4 661.3 514.6 661.9C514 661.9 512 661.9 511.6 662C508.6 662.3 505.1 662.7 502.6 664.1C502.5 664.2 502.5 664.2 502.5 664.2C502.5 664.2 502.6 664.2 502.6 664.1C502.6 664.1 502.7 664 502.8 663.8C502.9 663.7 503 663.5 503 663.3Z" fill="white"/>
<path fill-rule="evenodd" clip-rule="evenodd" d="M491.2 547.6C501.6 553.8 516.6 554.2 526.7 547.6L647.2 456.5L544.4 557.2C524.6 576.5 493.1 576.5 473.3 557.2L370.6 456.6L491.2 547.6Z" fill="white"/>
<path d="M632.1 673.9C581.9 685.3 510.1 676.2 497.8 663.4C500.8 655.5 530.8 656.1 530.8 656.1C559.5 665.7 682.9 676.9 728.4 604.4C717.3 625.3 682.3 662.5 632.1 673.9Z" fill="white"/>
<path d="M862 338.665C839.773 312.303 813.646 286.624 782.255 271.783C804.872 266.609 828.659 265.046 851.666 264.363C828.854 246.105 804.092 226.675 776.893 215.642C667.903 170.631 490.768 183.422 440.757 306.542C431.886 310.643 368.616 338.958 381.972 400.371C381.972 400.371 404.297 348.429 477.51 342.082C477.217 335.736 468.151 323.141 463.276 320.211C496.617 244.152 579.481 208.71 662.638 206.464C734.097 204.511 801.655 228.725 837.628 262.41C788.3 264.949 753.301 271.686 727.175 278.52C776.503 278.325 814.036 292.287 852.251 334.369C823.297 328.803 802.143 326.46 790.737 326.655C950.908 569.577 766.657 857.02 498.372 857.02C406.344 857.02 173.739 784.183 173.739 521.832C173.836 519.782 173.934 517.731 174.031 515.681C184.95 631.576 266.449 727.163 374.758 768.073C418.822 785.159 466.104 793.556 513.093 792.97C514.067 792.97 369.299 794.142 264.11 683.519C199.671 615.759 176.566 520.66 195.284 429.858C199.866 447.042 208.737 474.088 221.8 481.508C220.143 392.072 315.096 353.701 306.907 278.13C360.915 308.593 364.327 415.115 364.327 415.115C366.082 375.962 357.698 281.938 304.567 265.73C295.306 262.898 285.069 264.656 283.802 275.201C273.371 364.929 200.645 393.049 214.489 467.448C193.139 374.302 168.67 396.564 163.795 457.001C138.643 771.197 384.214 862 497.885 862C738.093 862 962.997 617.126 806.042 330.756C824.857 331.928 844.257 335.54 862 338.665Z" fill="white"/>
<path d="M332.741 577.289C313.244 553.954 304.567 495.762 308.369 462.761C308.174 456.61 304.372 451.825 299.595 449.677C294.623 447.529 288.189 447.822 283.997 452.899C191.677 563.717 275.906 666.627 274.833 664.87C227.942 589.787 256.213 516.656 299.888 461.198C299.79 476.43 301.643 542.628 332.741 577.289Z" fill="white"/>
</g>
<defs>
<clipPath id="clip0_6442_9893">
<rect width="1024" height="1024" fill="white"/>
</clipPath>
</defs>
</svg>
